<svg xmlns="http://www.w3.org/2000/svg" xmlns:xlink="http://www.w3.org/1999/xlink" width="500" zoomAndPan="magnify" viewBox="0 0 375 374.999991" height="500" preserveAspectRatio="xMidYMid meet" version="1.0"><defs><g/><clipPath id="c5baa6da93"><path d="M 109.660156 139.929688 L 265.332031 139.929688 L 265.332031 233.332031 L 109.660156 233.332031 Z M 109.660156 139.929688 " clip-rule="nonzero"/></clipPath></defs><g clip-path="url(#c5baa6da93)"><path fill="#000000" d="M 187.496094 139.929688 C 166.738281 139.929688 153.765625 150.308594 148.578125 171.066406 C 156.359375 160.6875 165.441406 156.792969 175.820312 159.390625 C 181.742188 160.867188 185.972656 165.167969 190.65625 169.921875 C 198.289062 177.667969 207.121094 186.632812 226.414062 186.632812 C 247.167969 186.632812 260.140625 176.253906 265.332031 155.496094 C 257.546875 165.875 248.464844 169.765625 238.089844 167.171875 C 232.167969 165.695312 227.933594 161.394531 223.25 156.640625 C 215.621094 148.894531 206.785156 139.929688 187.496094 139.929688 Z M 148.578125 186.632812 C 127.820312 186.632812 114.847656 197.011719 109.660156 217.765625 C 117.441406 207.386719 126.523438 203.496094 136.902344 206.089844 C 142.824219 207.574219 147.054688 211.867188 151.738281 216.621094 C 159.371094 224.367188 168.203125 233.332031 187.496094 233.332031 C 208.25 233.332031 221.222656 222.957031 226.414062 202.199219 C 218.628906 212.578125 209.546875 216.46875 199.171875 213.875 C 193.25 212.394531 189.015625 208.097656 184.332031 203.34375 C 176.703125 195.597656 167.867188 186.632812 148.578125 186.632812 Z M 148.578125 186.632812 " fill-opacity="1" fill-rule="evenodd"/></g><g fill="#000000" fill-opacity="1"><g transform="translate(28.104821, 256.499983)"><g><path d="M 94.84375 -175.5 L 94.84375 -161.640625 C 89.726562 -161.640625 85.085938 -161.128906 80.921875 -160.109375 C 76.753906 -159.097656 73.53125 -157.367188 71.25 -154.921875 C 68.976562 -152.472656 68.019531 -149.113281 68.375 -144.84375 L 72.78125 -101.78125 C 73.414062 -95.894531 73.066406 -91.023438 71.734375 -87.171875 C 70.398438 -83.328125 68.175781 -80.316406 65.0625 -78.140625 C 61.945312 -75.972656 57.972656 -74.429688 53.140625 -73.515625 C 58.046875 -72.679688 62.070312 -71.226562 65.21875 -69.15625 C 68.375 -67.09375 70.582031 -64.148438 71.84375 -60.328125 C 73.101562 -56.515625 73.414062 -51.492188 72.78125 -45.265625 L 68.375 -2.203125 C 68.019531 2.140625 68.960938 5.535156 71.203125 7.984375 C 73.453125 10.429688 76.675781 12.144531 80.875 13.125 C 85.070312 14.101562 89.726562 14.59375 94.84375 14.59375 L 94.84375 28.46875 C 88.957031 28.46875 83.316406 27.957031 77.921875 26.9375 C 72.535156 25.925781 67.773438 24.191406 63.640625 21.734375 C 59.515625 19.285156 56.398438 15.941406 54.296875 11.703125 C 52.203125 7.472656 51.503906 2.132812 52.203125 -4.3125 L 56.40625 -44.21875 C 56.957031 -49.050781 56.515625 -53.113281 55.078125 -56.40625 C 53.648438 -59.695312 50.570312 -62.195312 45.84375 -63.90625 C 41.113281 -65.625 34.0625 -66.484375 24.6875 -66.484375 L 24.6875 -80.5625 C 34.0625 -80.5625 41.113281 -81.398438 45.84375 -83.078125 C 50.570312 -84.753906 53.648438 -87.238281 55.078125 -90.53125 C 56.515625 -93.820312 56.957031 -97.847656 56.40625 -102.609375 L 52.203125 -142.734375 C 51.503906 -149.179688 52.203125 -154.519531 54.296875 -158.75 C 56.398438 -162.988281 59.5 -166.332031 63.59375 -168.78125 C 67.6875 -171.238281 72.445312 -172.972656 77.875 -173.984375 C 83.300781 -174.992188 88.957031 -175.5 94.84375 -175.5 Z M 94.84375 -175.5 "/></g></g></g><g fill="#000000" fill-opacity="1"><g transform="translate(222.089229, 256.499983)"><g><path d="M 31.1875 -175.453125 C 37.0625 -175.453125 42.691406 -174.941406 48.078125 -173.921875 C 53.472656 -172.910156 58.234375 -171.179688 62.359375 -168.734375 C 66.492188 -166.285156 69.628906 -162.941406 71.765625 -158.703125 C 73.898438 -154.472656 74.582031 -149.132812 73.8125 -142.6875 L 69.609375 -102.578125 C 69.054688 -97.816406 69.671875 -93.789062 71.453125 -90.5 C 73.234375 -87.21875 76.503906 -84.734375 81.265625 -83.046875 C 86.023438 -81.367188 92.710938 -80.53125 101.328125 -80.53125 L 101.328125 -66.46875 C 92.785156 -66.46875 86.113281 -65.609375 81.3125 -63.890625 C 76.519531 -62.171875 73.234375 -59.664062 71.453125 -56.375 C 69.671875 -53.09375 69.054688 -49.035156 69.609375 -44.203125 L 73.8125 -4.3125 C 74.507812 2.132812 73.804688 7.472656 71.703125 11.703125 C 69.609375 15.941406 66.515625 19.285156 62.421875 21.734375 C 58.328125 24.179688 53.566406 25.910156 48.140625 26.921875 C 42.710938 27.941406 37.0625 28.453125 31.1875 28.453125 L 31.1875 14.59375 C 36.289062 14.59375 40.925781 14.101562 45.09375 13.125 C 49.257812 12.144531 52.5 10.429688 54.8125 7.984375 C 57.125 5.535156 58.066406 2.140625 57.640625 -2.203125 L 53.234375 -45.25 C 52.609375 -51.476562 52.957031 -56.5 54.28125 -60.3125 C 55.613281 -64.132812 58.007812 -67.0625 61.46875 -69.09375 C 64.9375 -71.125 69.507812 -72.523438 75.1875 -73.296875 C 69.71875 -74.203125 65.25 -75.773438 61.78125 -78.015625 C 58.320312 -80.253906 55.890625 -83.296875 54.484375 -87.140625 C 53.085938 -90.992188 52.671875 -95.863281 53.234375 -101.75 L 57.640625 -144.796875 C 58.066406 -149.066406 57.125 -152.425781 54.8125 -154.875 C 52.5 -157.320312 49.273438 -159.050781 45.140625 -160.0625 C 41.015625 -161.082031 36.363281 -161.59375 31.1875 -161.59375 Z M 31.1875 -175.453125 "/></g></g></g></svg>