<svg width="399" height="92" viewBox="0 0 399 92" fill="none" xmlns="http://www.w3.org/2000/svg">
<mask id="mask0_16_650" style="mask-type:luminance" maskUnits="userSpaceOnUse" x="0" y="0" width="108" height="92">
<path d="M108 0H0V92H108V0Z" fill="white"/>
</mask>
<g mask="url(#mask0_16_650)">
<mask id="mask1_16_650" style="mask-type:luminance" maskUnits="userSpaceOnUse" x="28" y="30" width="52" height="32">
<path d="M28.1875 30.3125H79.526V61.1146H28.1875V30.3125Z" fill="white"/>
</mask>
<g mask="url(#mask1_16_650)">
<path fill-rule="evenodd" clip-rule="evenodd" d="M53.8594 30.3125C47.0156 30.3125 42.7344 33.7344 41.026 40.5781C43.5885 37.1563 46.5833 35.875 50.0104 36.7292C51.9635 37.2187 53.3542 38.6354 54.901 40.2031C57.4167 42.7552 60.3333 45.7135 66.6927 45.7135C73.5365 45.7135 77.8177 42.2917 79.526 35.4479C76.9635 38.8698 73.9688 40.151 70.5417 39.2969C68.5885 38.8073 67.1927 37.3906 65.651 35.8229C63.1354 33.2708 60.2188 30.3125 53.8594 30.3125ZM41.026 45.7135C34.1771 45.7135 29.901 49.1354 28.1875 55.9792C30.7552 52.5573 33.75 51.276 37.1719 52.1302C39.125 52.6198 40.5208 54.0365 42.0677 55.6042C44.5833 58.1563 47.4948 61.1146 53.8594 61.1146C60.7031 61.1146 64.9844 57.6927 66.6927 50.849C64.125 54.2708 61.1302 55.5521 57.7083 54.6979C55.7552 54.2083 54.3594 52.7917 52.8177 51.224C50.2969 48.6719 47.3854 45.7135 41.026 45.7135Z" fill="black"/>
</g>
<path d="M32.5643 10.8804V15.4429C30.882 15.4429 29.356 15.62 27.981 15.9637C26.606 16.297 25.5435 16.87 24.7935 17.672C24.0435 18.4793 23.7206 19.5835 23.8352 20.9845L25.2935 35.1929C25.5018 37.1408 25.382 38.7502 24.9393 40.0262C24.507 41.2918 23.7779 42.2866 22.7518 43.0054C21.7206 43.7137 20.4081 44.2137 18.8143 44.5054C20.4393 44.7866 21.7622 45.2658 22.7935 45.9429C23.8352 46.6252 24.5643 47.5991 24.981 48.8595C25.3977 50.1095 25.5018 51.7658 25.2935 53.8179L23.8352 68.0262C23.7206 69.4533 24.0331 70.5731 24.7727 71.3804C25.507 72.1981 26.5695 72.7658 27.9602 73.0887C29.3456 73.4064 30.882 73.5679 32.5643 73.5679V78.1512C30.632 78.1512 28.7779 77.9741 27.0018 77.6304C25.2206 77.297 23.6477 76.7241 22.2727 75.922C20.9081 75.1147 19.882 74.0106 19.1893 72.6095C18.507 71.2189 18.2779 69.4637 18.5018 67.3387L19.8977 54.172C20.0747 52.5783 19.9289 51.2345 19.4602 50.1512C18.9862 49.0679 17.9654 48.2502 16.3977 47.6929C14.8404 47.1252 12.5227 46.8387 9.43933 46.8387V42.1929C12.5227 42.1929 14.8404 41.9168 16.3977 41.3595C17.9654 40.8075 18.9862 39.9845 19.4602 38.9012C19.9289 37.8179 20.0747 36.495 19.8977 34.922L18.5018 21.6929C18.2779 19.5679 18.507 17.8127 19.1893 16.422C19.882 15.021 20.9029 13.9168 22.2518 13.1095C23.6112 12.2918 25.1893 11.7137 26.981 11.3804C28.7727 11.047 30.632 10.8804 32.5643 10.8804Z" fill="black"/>
<path d="M75.5591 10.9011C77.4862 10.9011 79.3403 11.0678 81.1216 11.4011C82.8976 11.7345 84.4653 12.3074 85.8299 13.1095C87.1893 13.9167 88.2257 15.0209 88.9341 16.422C89.6424 17.8126 89.8612 19.5678 89.6007 21.6928L88.2257 34.922C88.0435 36.4949 88.2466 37.8178 88.8299 38.9011C89.4132 39.9845 90.4862 40.8074 92.0591 41.3595C93.6268 41.9168 95.8351 42.1928 98.6841 42.1928V46.8386C95.8612 46.8386 93.6632 47.1251 92.0799 47.6928C90.4966 48.2501 89.4132 49.0782 88.8299 50.172C88.2466 51.2553 88.0435 52.5886 88.2257 54.172L89.6007 67.3386C89.8351 69.4636 89.606 71.2188 88.9132 72.6095C88.2153 74.0105 87.1945 75.1147 85.8507 75.922C84.5018 76.724 82.9341 77.297 81.1424 77.6303C79.3507 77.9636 77.4862 78.1303 75.5591 78.1303V73.5678C77.2362 73.5678 78.7674 73.4011 80.1424 73.0678C81.5174 72.7449 82.5799 72.1824 83.3299 71.3803C84.0903 70.573 84.4028 69.4532 84.2674 68.0261L82.8299 53.8386C82.6216 51.7865 82.731 50.1303 83.1632 48.8803C83.606 47.6199 84.3976 46.6511 85.5382 45.9845C86.6737 45.3074 88.1841 44.8386 90.0591 44.5886C88.2518 44.2865 86.7778 43.7657 85.6424 43.0261C84.5018 42.2918 83.6945 41.2918 83.2257 40.0261C82.7674 38.7501 82.632 37.1459 82.8299 35.2136L84.2674 21.0053C84.4028 19.6042 84.0903 18.5001 83.3299 17.6928C82.5799 16.8751 81.5226 16.297 80.1632 15.9636C78.7987 15.6303 77.2674 15.4636 75.5591 15.4636V10.9011Z" fill="black"/>
</g>
<mask id="mask2_16_650" style="mask-type:luminance" maskUnits="userSpaceOnUse" x="108" y="25" width="291" height="51">
<path d="M398.667 25.3333H108V75.9999H398.667V25.3333Z" fill="white"/>
</mask>
<g mask="url(#mask2_16_650)">
<path d="M109.961 33.0653V27.2112H135.252V33.0653C134.471 32.2633 133.502 31.4716 132.336 30.6903C131.169 29.9143 129.95 29.2528 128.69 28.7112C127.424 28.1695 126.258 27.857 125.19 27.7737V62.8778H120.023V27.7737C118.95 27.857 117.784 28.1695 116.523 28.7112C115.273 29.2528 114.065 29.9143 112.898 30.6903C111.732 31.4716 110.752 32.2633 109.961 33.0653Z" fill="black"/>
<path d="M130.247 58.107C130.247 56.982 130.507 55.9195 131.039 54.9195C131.565 53.9091 132.273 52.9508 133.164 52.0445C134.049 51.1278 135.049 50.2893 136.164 49.5237C137.289 48.7476 138.435 48.0393 139.601 47.3987C138.435 46.8987 137.257 46.4976 136.08 46.1903C134.914 45.8883 133.83 45.6487 132.83 45.482C131.841 45.3153 131.044 45.2216 130.435 45.1903C130.794 43.6903 131.481 42.4351 132.497 41.4195C133.523 40.3935 134.711 39.6174 136.06 39.0862C137.419 38.5445 138.778 38.2737 140.143 38.2737C141.919 38.2737 143.32 38.5393 144.351 39.0653C145.393 39.581 146.195 40.2945 146.768 41.2112C147.336 42.1278 147.773 43.1643 148.08 44.3153C148.398 45.4716 148.711 46.6851 149.018 47.9612C149.445 49.6591 149.83 51.2685 150.164 52.7945C150.507 54.3101 150.877 55.8726 151.268 57.482C151.669 59.081 152.106 60.8778 152.58 62.8778H147.33V55.3153C147.33 56.1226 147.106 56.982 146.664 57.8987C146.231 58.8153 145.586 59.6851 144.726 60.5028C143.877 61.3101 142.815 61.9716 141.539 62.482C140.273 62.982 138.815 63.232 137.164 63.232C136.049 63.232 134.966 63.0341 133.914 62.6487C132.856 62.2633 131.981 61.6799 131.289 60.8987C130.591 60.1226 130.247 59.1903 130.247 58.107ZM146.81 55.3153C146.81 54.206 146.549 53.206 146.039 52.3153C145.523 51.4143 144.83 50.607 143.955 49.8987C143.091 49.1799 142.127 48.5601 141.06 48.0445C140.018 48.8258 139.049 49.706 138.164 50.6903C137.289 51.6643 136.586 52.706 136.06 53.8153C135.544 54.9143 135.289 56.081 135.289 57.3153C135.289 58.1903 135.518 58.9612 135.976 59.6278C136.445 60.2945 137.08 60.831 137.872 61.232C138.664 61.6226 139.544 61.8153 140.518 61.8153C141.377 61.8153 142.19 61.5966 142.955 61.1487C143.716 60.6903 144.393 60.1174 144.976 59.4195C145.56 58.7268 146.007 58.0133 146.33 57.2737C146.648 56.5393 146.81 55.8883 146.81 55.3153ZM140.351 46.9612C141.695 46.2841 142.987 45.706 144.226 45.232C145.461 44.7476 146.487 44.3883 147.31 44.1487C147.211 42.6799 146.711 41.5966 145.81 40.8987C144.903 40.1903 143.856 39.8362 142.664 39.8362C141.549 39.8362 140.565 40.0133 139.705 40.357C138.841 40.706 138.122 41.1383 137.539 41.6487C136.966 42.1487 136.528 42.6643 136.226 43.1903C135.935 43.7216 135.789 44.1591 135.789 44.5028C135.789 44.6695 135.83 44.8778 135.914 45.1278C135.997 45.3674 136.19 45.5237 136.497 45.607C137.872 46.0133 139.153 46.4612 140.351 46.9612ZM147.33 44.7528C146.481 45.0185 145.565 45.3935 144.58 45.8778C143.591 46.3674 142.622 46.9403 141.664 47.607C143.356 48.4976 144.726 49.5653 145.768 50.8153C146.81 52.0549 147.33 53.5549 147.33 55.3153V44.7528Z" fill="black"/>
<path d="M153.288 40.8361C154.163 40.7111 155.069 40.5236 156.017 40.2736C156.976 40.0132 157.882 39.7007 158.746 39.3361C159.621 38.9767 160.371 38.6226 160.996 38.2736V62.8778H155.83V43.3361C155.83 42.3674 155.621 41.7424 155.205 41.4611C154.799 41.1694 154.163 41.0236 153.288 41.0236V40.8361ZM155.184 34.0236C155.184 33.2215 155.476 32.534 156.059 31.9611C156.642 31.3934 157.335 31.1069 158.142 31.1069C158.976 31.1069 159.674 31.3934 160.246 31.9611C160.814 32.534 161.101 33.2215 161.101 34.0236C161.101 34.8309 160.814 35.5236 160.246 36.1069C159.674 36.6903 158.976 36.9819 158.142 36.9819C157.335 36.9819 156.642 36.6903 156.059 36.1069C155.476 35.5236 155.184 34.8309 155.184 34.0236Z" fill="black"/>
<path d="M163.236 29.4194C164.111 29.3101 165.017 29.1226 165.965 28.8569C166.924 28.5965 167.83 28.2892 168.694 27.9403C169.569 27.5809 170.319 27.2215 170.944 26.8569V62.8778H165.778V31.7736C165.778 30.8048 165.569 30.2007 165.153 29.9611C164.747 29.7267 164.111 29.6069 163.236 29.6069V29.4194Z" fill="black"/>
<path d="M173.785 38.6277H178.952L183.848 58.6277C184.181 59.7266 184.52 60.5235 184.869 61.0235C185.212 61.5235 185.561 61.7735 185.91 61.7735C186.395 61.7735 186.89 61.4714 187.39 60.8569C187.9 60.2319 188.369 59.4506 188.785 58.5027C189.202 57.5444 189.499 56.5444 189.681 55.5027C189.874 54.4506 189.869 53.5027 189.66 52.6694C189.629 52.6016 189.608 52.5235 189.598 52.4402C189.598 52.3569 189.582 52.2839 189.556 52.211C189.192 50.7683 188.858 49.3516 188.556 47.961C188.249 46.56 187.936 45.1069 187.619 43.6069C187.296 42.0964 186.921 40.435 186.494 38.6277H191.66C192.129 40.6277 192.546 42.435 192.91 44.0444C193.27 45.6589 193.608 47.2214 193.931 48.7319C194.265 50.2475 194.629 51.7944 195.035 53.3777C195.452 54.961 195.952 56.711 196.535 58.6277C196.869 59.7266 197.207 60.5235 197.556 61.0235C197.9 61.5235 198.254 61.7735 198.619 61.7735C199.186 61.7735 199.728 61.4141 200.244 60.6902C200.77 59.9558 201.244 59.0183 201.66 57.8777C202.077 56.7423 202.436 55.5183 202.744 54.211C203.061 52.9089 203.306 51.6589 203.473 50.461C203.64 49.2527 203.723 48.2527 203.723 47.461C203.723 45.7839 203.515 44.3881 203.098 43.2735C202.681 42.1485 202.14 41.2266 201.473 40.5027C200.806 39.7839 200.077 39.1589 199.285 38.6277L203.598 36.1277C204.624 36.6589 205.421 37.435 205.994 38.461C206.561 39.4766 206.848 40.685 206.848 42.086C206.848 42.8673 206.733 43.9194 206.515 45.2527C206.306 46.586 205.999 48.0548 205.598 49.6485C205.192 51.2475 204.702 52.8464 204.119 54.4402C203.535 56.0235 202.874 57.4819 202.14 58.8152C201.4 60.1485 200.598 61.2214 199.723 62.0235C198.848 62.8308 197.91 63.2319 196.91 63.2319C195.837 63.2319 194.957 63.0548 194.265 62.711C193.567 62.3516 193.015 61.8673 192.598 61.2527C192.181 60.6277 191.827 59.9141 191.535 59.1069C191.254 58.2891 190.983 57.4298 190.723 56.5235C190.707 56.4819 190.702 56.4506 190.702 56.4194C190.702 56.3933 190.686 56.3725 190.66 56.3569C190.119 57.6069 189.515 58.7631 188.848 59.8152C188.181 60.8569 187.457 61.6902 186.681 62.3152C185.9 62.9246 185.077 63.2319 184.202 63.2319C183.129 63.2319 182.249 63.0548 181.556 62.711C180.874 62.3516 180.327 61.8673 179.91 61.2527C179.494 60.6277 179.14 59.9141 178.848 59.1069C178.567 58.2891 178.296 57.4298 178.035 56.5235C177.561 54.9402 177.15 53.4506 176.806 52.0444C176.457 50.6433 176.129 49.2631 175.827 47.8985C175.535 46.5235 175.228 45.086 174.91 43.586C174.587 42.086 174.212 40.435 173.785 38.6277Z" fill="black"/>
<path d="M208.626 40.8361C209.501 40.7111 210.407 40.5236 211.355 40.2736C212.314 40.0132 213.22 39.7007 214.084 39.3361C214.959 38.9767 215.709 38.6226 216.334 38.2736V62.8778H211.168V43.3361C211.168 42.3674 210.959 41.7424 210.543 41.4611C210.137 41.1694 209.501 41.0236 208.626 41.0236V40.8361ZM210.522 34.0236C210.522 33.2215 210.814 32.534 211.397 31.9611C211.98 31.3934 212.673 31.1069 213.48 31.1069C214.314 31.1069 215.012 31.3934 215.584 31.9611C216.152 32.534 216.439 33.2215 216.439 34.0236C216.439 34.8309 216.152 35.5236 215.584 36.1069C215.012 36.6903 214.314 36.9819 213.48 36.9819C212.673 36.9819 211.98 36.6903 211.397 36.1069C210.814 35.5236 210.522 34.8309 210.522 34.0236Z" fill="black"/>
<path d="M218.574 40.8362C219.449 40.7112 220.355 40.5237 221.303 40.2737C222.262 40.0133 223.168 39.7008 224.032 39.3362C224.907 38.9768 225.657 38.6226 226.282 38.2737V45.9403C226.392 45.1799 226.668 44.357 227.116 43.482C227.558 42.5966 228.147 41.7633 228.887 40.982C229.621 40.1903 230.501 39.5445 231.532 39.0445C232.574 38.5341 233.73 38.2737 235.012 38.2737C235.48 38.2737 236.064 38.3362 236.762 38.4612C237.454 38.5758 238.137 38.8362 238.803 39.2528C239.47 39.6695 240.022 40.3362 240.47 41.2528C240.928 42.1695 241.157 43.4351 241.157 45.0445V62.8778H235.97V43.2528C235.97 42.1174 235.699 41.2685 235.157 40.7112C234.626 40.1591 233.939 39.8778 233.095 39.8778C232.137 39.8778 231.241 40.1435 230.407 40.6695C229.574 41.1851 228.845 41.8883 228.22 42.7737C227.605 43.6643 227.126 44.6851 226.782 45.8362C226.449 46.9768 226.282 48.1643 226.282 49.3987V62.8778H221.116V43.3362C221.116 42.3674 220.907 41.7424 220.491 41.4612C220.085 41.1695 219.449 41.0237 218.574 41.0237V40.8362Z" fill="black"/>
<path d="M245.075 52.6486C245.075 49.7892 245.643 47.3101 246.784 45.2111C247.919 43.1017 249.518 41.4767 251.575 40.3361C253.628 39.2007 256.023 38.6278 258.763 38.6278H259.971V31.7736C259.971 30.8048 259.768 30.2007 259.367 29.9611C258.961 29.7267 258.325 29.6069 257.45 29.6069V29.4194C258.325 29.3101 259.232 29.1226 260.18 28.8569C261.138 28.5965 262.044 28.2892 262.909 27.9403C263.784 27.5809 264.523 27.2215 265.138 26.8569V62.8778H259.971V58.5653C259.263 59.9715 258.31 61.1017 257.117 61.9611C255.935 62.8101 254.497 63.2319 252.805 63.2319C251.43 63.2319 250.247 62.9403 249.263 62.3569C248.289 61.7632 247.492 60.9559 246.867 59.9403C246.253 58.9299 245.805 57.7944 245.513 56.5444C245.221 55.284 245.075 53.9819 245.075 52.6486ZM249.846 51.7944C249.846 52.7424 249.971 53.6903 250.221 54.6486C250.471 55.5965 250.836 56.4715 251.325 57.2736C251.81 58.0653 252.419 58.7007 253.159 59.1694C253.893 59.6434 254.763 59.8778 255.763 59.8778C256.898 59.8778 257.768 59.7111 258.367 59.3778C258.961 59.034 259.372 58.6278 259.596 58.1694C259.831 57.7007 259.956 57.2684 259.971 56.8778V39.1694H258.555C256.93 39.1694 255.456 39.7215 254.138 40.8153C252.815 41.8986 251.768 43.3882 250.992 45.2736C250.226 47.1642 249.846 49.3361 249.846 51.7944Z" fill="black"/>
<path d="M288.817 62.8778H283.65V27.2112H296.838C298.338 27.2112 299.682 27.5185 300.88 28.1278C302.088 28.7268 303.109 29.5393 303.942 30.5653C304.775 31.5966 305.406 32.7424 305.838 34.0028C306.281 35.2528 306.505 36.5341 306.505 37.8362C306.505 39.1435 306.26 40.4299 305.775 41.6903C305.286 42.956 304.557 44.1018 303.588 45.1278C302.63 46.1435 301.442 46.956 300.025 47.5653C298.619 48.1643 296.989 48.4612 295.13 48.4612H288.817V62.8778ZM291.859 27.6695H288.817V47.9403H291.859C293.426 47.9403 294.801 47.6591 295.984 47.0862C297.176 46.5028 298.161 45.732 298.942 44.7737C299.734 43.8153 300.327 42.7476 300.734 41.5653C301.135 40.3726 301.338 39.1591 301.338 37.9195C301.338 36.6591 301.135 35.4195 300.734 34.2112C300.343 32.9924 299.76 31.8883 298.984 30.8987C298.202 29.9143 297.218 29.1278 296.025 28.5445C294.827 27.9612 293.442 27.6695 291.859 27.6695Z" fill="black"/>
<path d="M307.928 40.8362C308.803 40.7112 309.709 40.5237 310.657 40.2737C311.615 40.0133 312.522 39.7008 313.386 39.3362C314.261 38.9768 315.011 38.6226 315.636 38.2737V45.9403C315.813 45.107 316.1 44.2476 316.49 43.357C316.892 42.456 317.407 41.6226 318.032 40.857C318.668 40.081 319.428 39.456 320.303 38.982C321.178 38.5133 322.199 38.2737 323.365 38.2737C324.824 38.2737 326.037 38.5758 327.011 39.1695L325.115 43.8362C324.501 43.5341 323.865 43.2685 323.199 43.0445C322.532 42.8101 321.793 42.6903 320.99 42.6903C320.058 42.6903 319.183 42.9351 318.365 43.4195C317.558 43.9091 316.897 44.607 316.386 45.5237C315.886 46.4403 315.636 47.5393 315.636 48.8153V62.8778H310.47V43.3362C310.47 42.3674 310.261 41.7424 309.845 41.4612C309.438 41.1695 308.803 41.0237 307.928 41.0237V40.8362Z" fill="black"/>
<path d="M327.717 40.8361C328.592 40.7111 329.498 40.5236 330.446 40.2736C331.405 40.0132 332.311 39.7007 333.175 39.3361C334.05 38.9767 334.8 38.6226 335.425 38.2736V62.8778H330.259V43.3361C330.259 42.3674 330.05 41.7424 329.634 41.4611C329.227 41.1694 328.592 41.0236 327.717 41.0236V40.8361ZM329.613 34.0236C329.613 33.2215 329.905 32.534 330.488 31.9611C331.071 31.3934 331.764 31.1069 332.571 31.1069C333.405 31.1069 334.102 31.3934 334.675 31.9611C335.243 32.534 335.53 33.2215 335.53 34.0236C335.53 34.8309 335.243 35.5236 334.675 36.1069C334.102 36.6903 333.405 36.9819 332.571 36.9819C331.764 36.9819 331.071 36.6903 330.488 36.1069C329.905 35.5236 329.613 34.8309 329.613 34.0236Z" fill="black"/>
<path d="M348.29 63.232C346.149 63.232 344.269 62.9091 342.644 62.2737C341.019 61.6383 339.592 60.6851 338.373 59.4195L341.082 53.0237C341.842 54.5549 342.816 55.9716 343.998 57.2737C345.191 58.5653 346.561 59.607 348.103 60.3987C349.655 61.1903 351.321 61.5862 353.103 61.5862C353.754 61.5862 354.311 61.3935 354.769 61.0028C355.228 60.6174 355.457 60.0758 355.457 59.3778C355.457 58.5028 355.155 57.7528 354.561 57.1278C353.978 56.4924 353.191 55.9299 352.207 55.4403C351.233 54.956 350.165 54.482 348.998 54.0237C347.842 53.5549 346.686 53.0653 345.519 52.5653C344.353 52.0549 343.274 51.4612 342.29 50.7945C341.316 50.1278 340.53 49.3258 339.936 48.3778C339.353 47.4351 339.061 46.3258 339.061 45.0445C339.061 43.5185 339.483 42.2633 340.332 41.2737C341.191 40.2737 342.353 39.5237 343.811 39.0237C345.28 38.5237 346.905 38.2737 348.686 38.2737C350.019 38.2737 351.233 38.4299 352.332 38.732C353.441 39.0237 354.399 39.3674 355.207 39.7528C356.024 40.1435 356.634 40.482 357.04 40.7737L354.332 46.1487C353.54 45.2476 352.608 44.3258 351.54 43.3778C350.467 42.4195 349.274 41.607 347.957 40.9403C346.634 40.2737 345.207 39.9403 343.665 39.9403C342.8 39.9403 342.17 40.1851 341.769 40.6695C341.363 41.1591 341.165 41.7008 341.165 42.2945C341.165 43.2268 341.457 44.0185 342.04 44.6695C342.634 45.3258 343.42 45.8987 344.394 46.3987C345.379 46.8987 346.457 47.3726 347.623 47.8153C348.8 48.2476 349.983 48.7112 351.165 49.2112C352.342 49.7008 353.42 50.2737 354.394 50.9403C355.363 51.5966 356.149 52.3883 356.748 53.3153C357.342 54.2476 357.644 55.3674 357.644 56.6695C357.644 58.1435 357.233 59.3726 356.415 60.357C355.608 61.331 354.498 62.0549 353.082 62.5237C351.675 62.9924 350.082 63.232 348.29 63.232Z" fill="black"/>
<path d="M358.345 40.8362C359.22 40.7112 360.127 40.5237 361.075 40.2737C362.033 40.0133 362.939 39.7008 363.804 39.3362C364.679 38.9768 365.429 38.6226 366.054 38.2737V45.9403C366.163 45.1799 366.439 44.357 366.887 43.482C367.33 42.5966 367.918 41.7633 368.658 40.982C369.392 40.1903 370.273 39.5445 371.304 39.0445C372.345 38.5341 373.502 38.2737 374.783 38.2737C375.252 38.2737 375.835 38.3362 376.533 38.4612C377.226 38.5758 377.908 38.8362 378.575 39.2528C379.241 39.6695 379.793 40.3362 380.241 41.2528C380.7 42.1695 380.929 43.4351 380.929 45.0445V45.9403C381.038 45.1799 381.314 44.357 381.762 43.482C382.205 42.5966 382.793 41.7633 383.533 40.982C384.267 40.1903 385.148 39.5445 386.179 39.0445C387.22 38.5341 388.377 38.2737 389.658 38.2737C390.127 38.2737 390.71 38.3362 391.408 38.4612C392.101 38.5758 392.783 38.8362 393.45 39.2528C394.116 39.6695 394.668 40.3362 395.116 41.2528C395.575 42.1695 395.804 43.4351 395.804 45.0445V62.8778H390.616V43.2528C390.616 42.1174 390.345 41.2685 389.804 40.7112C389.273 40.1591 388.585 39.8778 387.741 39.8778C386.783 39.8778 385.887 40.1435 385.054 40.6695C384.22 41.1851 383.491 41.8883 382.866 42.7737C382.252 43.6643 381.773 44.6851 381.429 45.8362C381.095 46.9768 380.929 48.1643 380.929 49.3987V62.8778H375.741V43.2528C375.741 42.1174 375.47 41.2685 374.929 40.7112C374.398 40.1591 373.71 39.8778 372.866 39.8778C371.908 39.8778 371.012 40.1435 370.179 40.6695C369.345 41.1851 368.616 41.8883 367.991 42.7737C367.377 43.6643 366.898 44.6851 366.554 45.8362C366.22 46.9768 366.054 48.1643 366.054 49.3987V62.8778H360.887V43.3362C360.887 42.3674 360.679 41.7424 360.262 41.4612C359.856 41.1695 359.22 41.0237 358.345 41.0237V40.8362Z" fill="black"/>
</g>
</svg>
